{"title":"Tyler Perrys Madeas Neighbors From Hell 2014 WEBRip x264 AAC","uid":9999278,"size":1384039322,"categoryP":"video","categoryS":"movies","magnet":"?xt=urn:btih:10c81c00f75d78ec3116e357a1c18d21f59aada3&amp;dn=Tyler+Perrys+Madeas+Neighbors+From+Hell+2014+WEBRip+x264+AAC&amp;tr=udp%3A%2F%2Ftracker.openbittorrent.com%3A80&amp;tr=udp%3A%2F%2Fopen.demonii.com%3A1337&amp;tr=udp%3A%2F%2Ftracker.coppersurfer.tk%3A6969&amp;tr=udp%3A%2F%2Fexodus.desync.com%3A6969","seeders":19,"leechers":8,"uploader":"desspratt","files":3,"time":1397959124,"description":"[URL=https://imageshack.com/i/n6xxjaj][IMG]http://imagizer.imageshack.us/v2/1280x1024q90/834/xxja.jpg[/IMG][/URL]\n\n\n\nSource: 720p MbNut [THANKS]\n AMAZON:\n Sample Included: yes\n\n General\n Complete name: Tyler Perrys Madeas Neighbors From Hell 2014 WEBRip x264 AAC-MiLLENiUM.mp4\n Format: MPEG-4\n Format profile: Base Media\n Codec ID: isom\n File size: 1.25 GiB\n Duration: 2h 17mn\n Overall bit rate mode: Variable\n Overall bit rate: 1 298 Kbps\n Encoded date: UTC 2014-04-19 19:21:21\n Tagged date: UTC 2014-04-19 19:21:21\n\n Video\n ID: 1\n Format: AVC\n Format/Info: Advanced Video Codec\n Format profile: &lt;a class=&quot;__cf_email__&quot; href=&quot;/cdn-cgi/l/email-protection&quot; data-cfemail=&quot;d098b9b7b8909ce4fee1&quot;&gt;[email&amp;#160;protected]&lt;/a&gt;&lt;script cf-hash='f9e31' type=&quot;text/javascript&quot;&gt;\n/* &lt;![CDATA[ */!function(){try{var t=&quot;currentScript&quot;in document?document.currentScript:function(){for(var t=document.getElementsByTagName(&quot;script&quot;),e=t.length;e--;)if(t[e].getAttribute(&quot;cf-hash&quot;))return t[e]}();if(t&amp;&amp;t.previousSibling){var e,r,n,i,c=t.previousSibling,a=c.getAttribute(&quot;data-cfemail&quot;);if(a){for(e=&quot;&quot;,r=parseInt(a.substr(0,2),16),n=2;a.length-n;n+=2)i=parseInt(a.substr(n,2),16)^r,e+=String.fromCharCode(i);e=document.createTextNode(e),c.parentNode.replaceChild(e,c)}}}catch(u){}}();/* ]]&gt; */&lt;/script&gt;\n Format settings, CABAC: Yes\n Format settings, ReFrames: 3 frames\n Codec ID: avc1\n Codec ID/Info: Advanced Video Coding\n Duration: 2h 17mn\n Bit rate mode: Variable\n Bit rate: 1 170 Kbps\n Maximum bit rate: 40.0 Mbps\n Width: 720 pixels\n Height: 400 pixels\n Display aspect ratio: 16:9\n Frame rate mode: Constant\n Frame rate: 23.976 fps\n Color space: YUV\n Chroma subsampling: 4:2:0\n Bit depth: 8 bits\n Scan type: Progressive\n Bits/(Pixel*Frame): 0.169\n Stream size: 1.12 GiB (90%)\n Writing library: x264 core 142 r2409 d6b4e63\n\n Audio\n ID: 2\n Format: AAC\n Format/Info: Advanced Audio Codec\n Format profile: LC\n Codec ID: 40\n Duration: 2h 17mn\n Bit rate mode: Variable\n Bit rate: 126 Kbps\n Maximum bit rate: 264 Kbps\n Channel(s): 2 channels\n Channel positions: Front: L R\n Sampling rate: 44.1 KHz\n Compression mode: Lossy\n Stream size: 124 MiB (10%)\n Language: English\n Encoded date: UTC 2014-04-19 19:21:45\n Tagged date: UTC 2014-04-19 19:21:56 Plot\n Madea's neighborhood takes a turn for the worse when a foster mother moves in with her unruly kids. Suspicious activity leads Madea to take justice into her own hands. With Aunt Bam by her side, Madea uses her unique wit and wisdom for unforgettable results.......\n\n\n\n[URL=https://imageshack.com/i/nehwvop][IMG]http://imagizer.imageshack.us/v2/1280x1024q90/842/hwvo.png[/IMG][/URL]\n[URL=https://imageshack.com/i/n7oaxgp][IMG]http://imagizer.imageshack.us/v2/1280x1024q90/835/oaxg.png[/IMG][/URL]\n[URL=https://imageshack.com/i/nh058ap][IMG]http://imagizer.imageshack.us/v2/1280x1024q90/845/058a.png[/IMG][/URL]","torrent":{"xt":"urn:btih:10c81c00f75d78ec3116e357a1c18d21f59aada3","amp;dn":"Tyler+Perrys+Madeas+Neighbors+From+Hell+2014+WEBRip+x264+AAC","amp;tr":["udp%3A%2F%2Ftracker.openbittorrent.com%3A80","udp%3A%2F%2Fopen.demonii.com%3A1337","udp%3A%2F%2Ftracker.coppersurfer.tk%3A6969","udp%3A%2F%2Fexodus.desync.com%3A6969"],"infoHash":"10c81c00f75d78ec3116e357a1c18d21f59aada3","infoHashBuffer":{"type":"Buffer","data":[16,200,28,0,247,93,120,236,49,22,227,87,161,193,141,33,245,154,173,163]},"announce":[],"urlList":[]}}